<?xml version="1.0" encoding="UTF-8"?>
<svg xmlns="http://www.w3.org/2000/svg" width="27.659mm" height="26.733mm" viewBox="-663.737183 33.461952 27.658752 26.732895">
    <path transform="matrix(-1.284185,0,0,0.470039,-663.786133,33.444038)" style="stroke:#0000ff;stroke-width:0.05mm;fill:none" d="M-13.576097,7.545996L-21.576097,7.545996L-21.576097,4.517803C-21.576097,4.214102,-21.437897,3.926603,-21.200699,3.736902C-18.209501,1.343103,-14.486297,0.038108,-10.65401,0.038108C-6.961799,0.038108,-3.370619,1.248208,-0.432898,3.482907C-0.183999,3.672307,-0.038098,3.966706,-0.038098,4.278906C-0.038098,4.280107,-0.038098,4.281607,-0.038098,4.282806L-0.038098,7.546004L-8.038099,7.546004"/>
    <path transform="matrix(-1.284185,0,0,1.220245,-663.786133,28.92709)" style="stroke:#0000ff;stroke-width:0.05mm;fill:none" d="M-7.774593,5.803099C-7.928493,6.371599,-8.016994,6.956299,-8.038095,7.545998C-8.013494,8.780397,-7.982594,10.045897,-7.982594,11.295991C-7.982594,12.54609,-8.013494,13.811392,-8.044294,15.046085C-8.212295,18.459183,-8.499595,22.02099,-8.815495,25.439278"/>
    <path transform="matrix(-1.284185,0,0,1.457841,-663.403503,28.114681)" style="stroke:#0000ff;stroke-width:0.05mm;fill:none" d="M-7.658092,4.6753C-7.342991,4.6752,-7.087391,4.930799,-7.087391,5.246001C-7.087391,5.246001,-7.087391,5.246001,-7.087391,5.246001C-7.087391,5.561202,-7.342991,5.8168,-7.65819,5.8168C-7.973391,5.8168,-8.22899,5.561199,-8.22899,5.246001C-8.22899,5.246001,-8.22899,5.246001,-8.22899,5.246001C-8.22899,4.930799,-7.973389,4.675201,-7.65819,4.675201"/>
    <path transform="matrix(-1.284185,0,0,1.006376,-663.823669,33.840927)" style="stroke:#0000ff;stroke-width:0.05mm;fill:none" d="M-10.765691,3.371799C-10.606991,3.371799,-10.478391,8.137494,-10.478391,14.016303C-10.478391,19.895111,-10.606991,24.660807,-10.765691,24.660807C-10.924391,24.660807,-11.052991,19.895111,-11.052991,14.016301C-11.052991,8.137493,-10.924391,3.371797,-10.765691,3.371799z"/>
    <path transform="matrix(-1.284185,0,0,1.284185,-664.105835,29.143665)" style="stroke:#0000ff;stroke-width:0.05mm;fill:none" d="M-13.907904,4.654511C-13.907904,4.654511,-13.907904,4.654511,-13.907904,4.654511C-13.592703,4.654511,-13.337105,4.910112,-13.337105,5.225311C-13.337105,5.540512,-13.592706,5.79611,-13.907904,5.79611C-13.907904,5.79611,-13.907904,5.79611,-13.907904,5.79611C-14.223104,5.79611,-14.478703,5.540509,-14.478703,5.225311C-14.478703,4.910109,-14.223102,4.654511,-13.907904,4.654511z"/>
    <path transform="matrix(-1.347494,0,0,1.235619,-664.662537,28.606003)" style="stroke:#0000ff;stroke-width:0.05mm;fill:none" d="M-13.842905,5.791096C-13.686904,6.363496,-13.597304,6.952397,-13.576105,7.545996C-13.600806,8.780396,-13.631704,10.045896,-13.631704,11.29599C-13.631704,12.546088,-13.600804,13.81139,-13.570005,15.046084C-13.402006,18.459181,-13.114705,22.020988,-12.798805,25.439278"/>
    <path transform="matrix(-1.284185,0,0,1.284185,-663.786133,27.300491)" style="stroke:#0000ff;stroke-width:0.05mm;fill:none" d="M-8.807109,25.442064C-9.465611,25.555264,-10.13781,25.614964,-10.807108,25.614964C-11.476507,25.614964,-12.148707,25.555264,-12.806707,25.441563"/>
</svg>
